<?xml version="1.0" encoding="utf-8" standalone="no"?>
<!DOCTYPE svg PUBLIC "-//W3C//DTD SVG 1.1//EN"
  "http://www.w3.org/Graphics/SVG/1.1/DTD/svg11.dtd">
<svg xmlns:xlink="http://www.w3.org/1999/xlink" width="404.399306pt" height="317.99952pt" viewBox="0 0 404.399306 317.99952" xmlns="http://www.w3.org/2000/svg" version="1.1">
 <metadata>
  <rdf:RDF xmlns:dc="http://purl.org/dc/elements/1.1/" xmlns:cc="http://creativecommons.org/ns#" xmlns:rdf="http://www.w3.org/1999/02/22-rdf-syntax-ns#">
   <cc:Work>
    <dc:type rdf:resource="http://purl.org/dc/dcmitype/StillImage"/>
    <dc:date>2024-11-27T12:07:11.346851</dc:date>
    <dc:format>image/svg+xml</dc:format>
    <dc:creator>
     <cc:Agent>
      <dc:title>Matplotlib v3.9.2, https://matplotlib.org/</dc:title>
     </cc:Agent>
    </dc:creator>
   </cc:Work>
  </rdf:RDF>
 </metadata>
 <defs>
  <style type="text/css">*{stroke-linejoin: round; stroke-linecap: butt}</style>
 </defs>
 <g id="figure_1">
  <g id="patch_1">
   <path d="M 0 317.99952 
L 404.399306 317.99952 
L 404.399306 0 
L 0 0 
z
" style="fill: #ffffff"/>
  </g>
  <g id="axes_1">
   <g id="patch_2">
    <path d="M 53.4475 273.961395 
L 393.095036 273.961395 
L 393.095036 25.3575 
L 53.4475 25.3575 
z
" style="fill: #ffffff"/>
   </g>
   <g id="PathCollection_1">
    <defs>
     <path id="m9153ea13fe" d="M 0 -3 
L -0.673542 -0.927051 
L -2.85317 -0.927051 
L -1.089814 0.354102 
L -1.763356 2.427051 
L -0 1.145898 
L 1.763356 2.427051 
L 1.089814 0.354102 
L 2.85317 -0.927051 
L 0.673542 -0.927051 
z
" style="stroke: #1f77b4"/>
    </defs>
    <g clip-path="url(#peaf5119cd4)">
     <use xlink:href="#m9153ea13fe" x="92.083807" y="194.274965" style="fill: #1f77b4; stroke: #1f77b4"/>
     <use xlink:href="#m9153ea13fe" x="88.884113" y="192.279431" style="fill: #1f77b4; stroke: #1f77b4"/>
     <use xlink:href="#m9153ea13fe" x="80.084954" y="185.206921" style="fill: #1f77b4; stroke: #1f77b4"/>
     <use xlink:href="#m9153ea13fe" x="85.684419" y="180.699278" style="fill: #1f77b4; stroke: #1f77b4"/>
     <use xlink:href="#m9153ea13fe" x="105.682507" y="177.180041" style="fill: #1f77b4; stroke: #1f77b4"/>
     <use xlink:href="#m9153ea13fe" x="187.274709" y="170.899017" style="fill: #1f77b4; stroke: #1f77b4"/>
     <use xlink:href="#m9153ea13fe" x="75.285413" y="201.075223" style="fill: #1f77b4; stroke: #1f77b4"/>
     <use xlink:href="#m9153ea13fe" x="72.085719" y="199.023418" style="fill: #1f77b4; stroke: #1f77b4"/>
     <use xlink:href="#m9153ea13fe" x="68.886024" y="192.172851" style="fill: #1f77b4; stroke: #1f77b4"/>
     <use xlink:href="#m9153ea13fe" x="78.485107" y="187.899517" style="fill: #1f77b4; stroke: #1f77b4"/>
     <use xlink:href="#m9153ea13fe" x="103.282737" y="184.49417" style="fill: #1f77b4; stroke: #1f77b4"/>
     <use xlink:href="#m9153ea13fe" x="194.474021" y="178.095099" style="fill: #1f77b4; stroke: #1f77b4"/>
     <use xlink:href="#m9153ea13fe" x="71.285795" y="205.55127" style="fill: #1f77b4; stroke: #1f77b4"/>
     <use xlink:href="#m9153ea13fe" x="69.685948" y="203.483617" style="fill: #1f77b4; stroke: #1f77b4"/>
     <use xlink:href="#m9153ea13fe" x="70.485871" y="196.819677" style="fill: #1f77b4; stroke: #1f77b4"/>
     <use xlink:href="#m9153ea13fe" x="85.684419" y="192.693092" style="fill: #1f77b4; stroke: #1f77b4"/>
     <use xlink:href="#m9153ea13fe" x="114.481666" y="189.323099" style="fill: #1f77b4; stroke: #1f77b4"/>
     <use xlink:href="#m9153ea13fe" x="215.272033" y="182.670466" style="fill: #1f77b4; stroke: #1f77b4"/>
     <use xlink:href="#m9153ea13fe" x="245.669127" y="147.766601" style="fill: #1f77b4; stroke: #1f77b4"/>
     <use xlink:href="#m9153ea13fe" x="240.069662" y="145.767952" style="fill: #1f77b4; stroke: #1f77b4"/>
     <use xlink:href="#m9153ea13fe" x="223.271268" y="137.376088" style="fill: #1f77b4; stroke: #1f77b4"/>
     <use xlink:href="#m9153ea13fe" x="220.071574" y="131.888876" style="fill: #1f77b4; stroke: #1f77b4"/>
     <use xlink:href="#m9153ea13fe" x="231.270504" y="127.849336" style="fill: #1f77b4; stroke: #1f77b4"/>
     <use xlink:href="#m9153ea13fe" x="296.06431" y="121.479006" style="fill: #1f77b4; stroke: #1f77b4"/>
     <use xlink:href="#m9153ea13fe" x="217.671803" y="159.332557" style="fill: #1f77b4; stroke: #1f77b4"/>
     <use xlink:href="#m9153ea13fe" x="212.872262" y="157.009584" style="fill: #1f77b4; stroke: #1f77b4"/>
     <use xlink:href="#m9153ea13fe" x="200.873409" y="148.648598" style="fill: #1f77b4; stroke: #1f77b4"/>
     <use xlink:href="#m9153ea13fe" x="202.473256" y="143.52394" style="fill: #1f77b4; stroke: #1f77b4"/>
     <use xlink:href="#m9153ea13fe" x="218.471727" y="139.759139" style="fill: #1f77b4; stroke: #1f77b4"/>
     <use xlink:href="#m9153ea13fe" x="292.864616" y="133.631171" style="fill: #1f77b4; stroke: #1f77b4"/>
     <use xlink:href="#m9153ea13fe" x="203.27318" y="167.054868" style="fill: #1f77b4; stroke: #1f77b4"/>
     <use xlink:href="#m9153ea13fe" x="200.073485" y="164.602739" style="fill: #1f77b4; stroke: #1f77b4"/>
     <use xlink:href="#m9153ea13fe" x="192.07425" y="156.434609" style="fill: #1f77b4; stroke: #1f77b4"/>
     <use xlink:href="#m9153ea13fe" x="198.473638" y="151.601086" style="fill: #1f77b4; stroke: #1f77b4"/>
     <use xlink:href="#m9153ea13fe" x="219.27165" y="148.026342" style="fill: #1f77b4; stroke: #1f77b4"/>
     <use xlink:href="#m9153ea13fe" x="302.463699" y="141.99819" style="fill: #1f77b4; stroke: #1f77b4"/>
     <use xlink:href="#m9153ea13fe" x="361.658041" y="110.632423" style="fill: #1f77b4; stroke: #1f77b4"/>
     <use xlink:href="#m9153ea13fe" x="355.258653" y="109.365672" style="fill: #1f77b4; stroke: #1f77b4"/>
     <use xlink:href="#m9153ea13fe" x="331.260946" y="101.163146" style="fill: #1f77b4; stroke: #1f77b4"/>
     <use xlink:href="#m9153ea13fe" x="321.661864" y="95.248948" style="fill: #1f77b4; stroke: #1f77b4"/>
     <use xlink:href="#m9153ea13fe" x="326.461405" y="90.91338" style="fill: #1f77b4; stroke: #1f77b4"/>
     <use xlink:href="#m9153ea13fe" x="377.656512" y="84.365488" style="fill: #1f77b4; stroke: #1f77b4"/>
     <use xlink:href="#m9153ea13fe" x="324.861558" y="126.940757" style="fill: #1f77b4; stroke: #1f77b4"/>
     <use xlink:href="#m9153ea13fe" x="320.062017" y="124.850995" style="fill: #1f77b4; stroke: #1f77b4"/>
     <use xlink:href="#m9153ea13fe" x="300.863852" y="116.10419" style="fill: #1f77b4; stroke: #1f77b4"/>
     <use xlink:href="#m9153ea13fe" x="295.264387" y="110.525435" style="fill: #1f77b4; stroke: #1f77b4"/>
     <use xlink:href="#m9153ea13fe" x="304.863469" y="106.510626" style="fill: #1f77b4; stroke: #1f77b4"/>
     <use xlink:href="#m9153ea13fe" x="365.657659" y="100.344087" style="fill: #1f77b4; stroke: #1f77b4"/>
     <use xlink:href="#m9153ea13fe" x="302.463699" y="137.726662" style="fill: #1f77b4; stroke: #1f77b4"/>
     <use xlink:href="#m9153ea13fe" x="297.664158" y="135.280829" style="fill: #1f77b4; stroke: #1f77b4"/>
     <use xlink:href="#m9153ea13fe" x="283.265534" y="126.498142" style="fill: #1f77b4; stroke: #1f77b4"/>
     <use xlink:href="#m9153ea13fe" x="283.265534" y="121.241897" style="fill: #1f77b4; stroke: #1f77b4"/>
     <use xlink:href="#m9153ea13fe" x="296.864234" y="117.478418" style="fill: #1f77b4; stroke: #1f77b4"/>
     <use xlink:href="#m9153ea13fe" x="367.257506" y="111.557087" style="fill: #1f77b4; stroke: #1f77b4"/>
    </g>
   </g>
   <g id="matplotlib.axis_1">
    <g id="xtick_1">
     <g id="line2d_1">
      <path d="M 67.686139 273.961395 
L 67.686139 25.3575 
" clip-path="url(#peaf5119cd4)" style="fill: none; stroke: #b0b0b0; stroke-width: 0.8; stroke-linecap: square"/>
     </g>
     <g id="line2d_2">
      <defs>
       <path id="m09e76dc7e7" d="M 0 0 
L 0 3.5 
" style="stroke: #000000; stroke-width: 0.8"/>
      </defs>
      <g>
       <use xlink:href="#m09e76dc7e7" x="67.686139" y="273.961395" style="stroke: #000000; stroke-width: 0.8"/>
      </g>
     </g>
     <g id="text_1">
      <!-- 335 -->
      <g transform="translate(58.142389 288.559832) scale(0.1 -0.1)">
       <defs>
        <path id="DejaVuSans-33" d="M 2597 2516 
Q 3050 2419 3304 2112 
Q 3559 1806 3559 1356 
Q 3559 666 3084 287 
Q 2609 -91 1734 -91 
Q 1441 -91 1130 -33 
Q 819 25 488 141 
L 488 750 
Q 750 597 1062 519 
Q 1375 441 1716 441 
Q 2309 441 2620 675 
Q 2931 909 2931 1356 
Q 2931 1769 2642 2001 
Q 2353 2234 1838 2234 
L 1294 2234 
L 1294 2753 
L 1863 2753 
Q 2328 2753 2575 2939 
Q 2822 3125 2822 3475 
Q 2822 3834 2567 4026 
Q 2313 4219 1838 4219 
Q 1578 4219 1281 4162 
Q 984 4106 628 3988 
L 628 4550 
Q 988 4650 1302 4700 
Q 1616 4750 1894 4750 
Q 2613 4750 3031 4423 
Q 3450 4097 3450 3541 
Q 3450 3153 3228 2886 
Q 3006 2619 2597 2516 
z
" transform="scale(0.015625)"/>
        <path id="DejaVuSans-35" d="M 691 4666 
L 3169 4666 
L 3169 4134 
L 1269 4134 
L 1269 2991 
Q 1406 3038 1543 3061 
Q 1681 3084 1819 3084 
Q 2600 3084 3056 2656 
Q 3513 2228 3513 1497 
Q 3513 744 3044 326 
Q 2575 -91 1722 -91 
Q 1428 -91 1123 -41 
Q 819 9 494 109 
L 494 744 
Q 775 591 1075 516 
Q 1375 441 1709 441 
Q 2250 441 2565 725 
Q 2881 1009 2881 1497 
Q 2881 1984 2565 2268 
Q 2250 2553 1709 2553 
Q 1456 2553 1204 2497 
Q 953 2441 691 2322 
L 691 4666 
z
" transform="scale(0.015625)"/>
       </defs>
       <use xlink:href="#DejaVuSans-33"/>
       <use xlink:href="#DejaVuSans-33" x="63.623047"/>
       <use xlink:href="#DejaVuSans-35" x="127.246094"/>
      </g>
     </g>
    </g>
    <g id="xtick_2">
     <g id="line2d_3">
      <path d="M 107.682316 273.961395 
L 107.682316 25.3575 
" clip-path="url(#peaf5119cd4)" style="fill: none; stroke: #b0b0b0; stroke-width: 0.8; stroke-linecap: square"/>
     </g>
     <g id="line2d_4">
      <g>
       <use xlink:href="#m09e76dc7e7" x="107.682316" y="273.961395" style="stroke: #000000; stroke-width: 0.8"/>
      </g>
     </g>
     <g id="text_2">
      <!-- 340 -->
      <g transform="translate(98.138566 288.559832) scale(0.1 -0.1)">
       <defs>
        <path id="DejaVuSans-34" d="M 2419 4116 
L 825 1625 
L 2419 1625 
L 2419 4116 
z
M 2253 4666 
L 3047 4666 
L 3047 1625 
L 3713 1625 
L 3713 1100 
L 3047 1100 
L 3047 0 
L 2419 0 
L 2419 1100 
L 313 1100 
L 313 1709 
L 2253 4666 
z
" transform="scale(0.015625)"/>
        <path id="DejaVuSans-30" d="M 2034 4250 
Q 1547 4250 1301 3770 
Q 1056 3291 1056 2328 
Q 1056 1369 1301 889 
Q 1547 409 2034 409 
Q 2525 409 2770 889 
Q 3016 1369 3016 2328 
Q 3016 3291 2770 3770 
Q 2525 4250 2034 4250 
z
M 2034 4750 
Q 2819 4750 3233 4129 
Q 3647 3509 3647 2328 
Q 3647 1150 3233 529 
Q 2819 -91 2034 -91 
Q 1250 -91 836 529 
Q 422 1150 422 2328 
Q 422 3509 836 4129 
Q 1250 4750 2034 4750 
z
" transform="scale(0.015625)"/>
       </defs>
       <use xlink:href="#DejaVuSans-33"/>
       <use xlink:href="#DejaVuSans-34" x="63.623047"/>
       <use xlink:href="#DejaVuSans-30" x="127.246094"/>
      </g>
     </g>
    </g>
    <g id="xtick_3">
     <g id="line2d_5">
      <path d="M 147.678493 273.961395 
L 147.678493 25.3575 
" clip-path="url(#peaf5119cd4)" style="fill: none; stroke: #b0b0b0; stroke-width: 0.8; stroke-linecap: square"/>
     </g>
     <g id="line2d_6">
      <g>
       <use xlink:href="#m09e76dc7e7" x="147.678493" y="273.961395" style="stroke: #000000; stroke-width: 0.8"/>
      </g>
     </g>
     <g id="text_3">
      <!-- 345 -->
      <g transform="translate(138.134743 288.559832) scale(0.1 -0.1)">
       <use xlink:href="#DejaVuSans-33"/>
       <use xlink:href="#DejaVuSans-34" x="63.623047"/>
       <use xlink:href="#DejaVuSans-35" x="127.246094"/>
      </g>
     </g>
    </g>
    <g id="xtick_4">
     <g id="line2d_7">
      <path d="M 187.67467 273.961395 
L 187.67467 25.3575 
" clip-path="url(#peaf5119cd4)" style="fill: none; stroke: #b0b0b0; stroke-width: 0.8; stroke-linecap: square"/>
     </g>
     <g id="line2d_8">
      <g>
       <use xlink:href="#m09e76dc7e7" x="187.67467" y="273.961395" style="stroke: #000000; stroke-width: 0.8"/>
      </g>
     </g>
     <g id="text_4">
      <!-- 350 -->
      <g transform="translate(178.13092 288.559832) scale(0.1 -0.1)">
       <use xlink:href="#DejaVuSans-33"/>
       <use xlink:href="#DejaVuSans-35" x="63.623047"/>
       <use xlink:href="#DejaVuSans-30" x="127.246094"/>
      </g>
     </g>
    </g>
    <g id="xtick_5">
     <g id="line2d_9">
      <path d="M 227.670848 273.961395 
L 227.670848 25.3575 
" clip-path="url(#peaf5119cd4)" style="fill: none; stroke: #b0b0b0; stroke-width: 0.8; stroke-linecap: square"/>
     </g>
     <g id="line2d_10">
      <g>
       <use xlink:href="#m09e76dc7e7" x="227.670848" y="273.961395" style="stroke: #000000; stroke-width: 0.8"/>
      </g>
     </g>
     <g id="text_5">
      <!-- 355 -->
      <g transform="translate(218.127098 288.559832) scale(0.1 -0.1)">
       <use xlink:href="#DejaVuSans-33"/>
       <use xlink:href="#DejaVuSans-35" x="63.623047"/>
       <use xlink:href="#DejaVuSans-35" x="127.246094"/>
      </g>
     </g>
    </g>
    <g id="xtick_6">
     <g id="line2d_11">
      <path d="M 267.667025 273.961395 
L 267.667025 25.3575 
" clip-path="url(#peaf5119cd4)" style="fill: none; stroke: #b0b0b0; stroke-width: 0.8; stroke-linecap: square"/>
     </g>
     <g id="line2d_12">
      <g>
       <use xlink:href="#m09e76dc7e7" x="267.667025" y="273.961395" style="stroke: #000000; stroke-width: 0.8"/>
      </g>
     </g>
     <g id="text_6">
      <!-- 360 -->
      <g transform="translate(258.123275 288.559832) scale(0.1 -0.1)">
       <defs>
        <path id="DejaVuSans-36" d="M 2113 2584 
Q 1688 2584 1439 2293 
Q 1191 2003 1191 1497 
Q 1191 994 1439 701 
Q 1688 409 2113 409 
Q 2538 409 2786 701 
Q 3034 994 3034 1497 
Q 3034 2003 2786 2293 
Q 2538 2584 2113 2584 
z
M 3366 4563 
L 3366 3988 
Q 3128 4100 2886 4159 
Q 2644 4219 2406 4219 
Q 1781 4219 1451 3797 
Q 1122 3375 1075 2522 
Q 1259 2794 1537 2939 
Q 1816 3084 2150 3084 
Q 2853 3084 3261 2657 
Q 3669 2231 3669 1497 
Q 3669 778 3244 343 
Q 2819 -91 2113 -91 
Q 1303 -91 875 529 
Q 447 1150 447 2328 
Q 447 3434 972 4092 
Q 1497 4750 2381 4750 
Q 2619 4750 2861 4703 
Q 3103 4656 3366 4563 
z
" transform="scale(0.015625)"/>
       </defs>
       <use xlink:href="#DejaVuSans-33"/>
       <use xlink:href="#DejaVuSans-36" x="63.623047"/>
       <use xlink:href="#DejaVuSans-30" x="127.246094"/>
      </g>
     </g>
    </g>
    <g id="xtick_7">
     <g id="line2d_13">
      <path d="M 307.663202 273.961395 
L 307.663202 25.3575 
" clip-path="url(#peaf5119cd4)" style="fill: none; stroke: #b0b0b0; stroke-width: 0.8; stroke-linecap: square"/>
     </g>
     <g id="line2d_14">
      <g>
       <use xlink:href="#m09e76dc7e7" x="307.663202" y="273.961395" style="stroke: #000000; stroke-width: 0.8"/>
      </g>
     </g>
     <g id="text_7">
      <!-- 365 -->
      <g transform="translate(298.119452 288.559832) scale(0.1 -0.1)">
       <use xlink:href="#DejaVuSans-33"/>
       <use xlink:href="#DejaVuSans-36" x="63.623047"/>
       <use xlink:href="#DejaVuSans-35" x="127.246094"/>
      </g>
     </g>
    </g>
    <g id="xtick_8">
     <g id="line2d_15">
      <path d="M 347.659379 273.961395 
L 347.659379 25.3575 
" clip-path="url(#peaf5119cd4)" style="fill: none; stroke: #b0b0b0; stroke-width: 0.8; stroke-linecap: square"/>
     </g>
     <g id="line2d_16">
      <g>
       <use xlink:href="#m09e76dc7e7" x="347.659379" y="273.961395" style="stroke: #000000; stroke-width: 0.8"/>
      </g>
     </g>
     <g id="text_8">
      <!-- 370 -->
      <g transform="translate(338.115629 288.559832) scale(0.1 -0.1)">
       <defs>
        <path id="DejaVuSans-37" d="M 525 4666 
L 3525 4666 
L 3525 4397 
L 1831 0 
L 1172 0 
L 2766 4134 
L 525 4134 
L 525 4666 
z
" transform="scale(0.015625)"/>
       </defs>
       <use xlink:href="#DejaVuSans-33"/>
       <use xlink:href="#DejaVuSans-37" x="63.623047"/>
       <use xlink:href="#DejaVuSans-30" x="127.246094"/>
      </g>
     </g>
    </g>
    <g id="xtick_9">
     <g id="line2d_17">
      <path d="M 387.655556 273.961395 
L 387.655556 25.3575 
" clip-path="url(#peaf5119cd4)" style="fill: none; stroke: #b0b0b0; stroke-width: 0.8; stroke-linecap: square"/>
     </g>
     <g id="line2d_18">
      <g>
       <use xlink:href="#m09e76dc7e7" x="387.655556" y="273.961395" style="stroke: #000000; stroke-width: 0.8"/>
      </g>
     </g>
     <g id="text_9">
      <!-- 375 -->
      <g transform="translate(378.111806 288.559832) scale(0.1 -0.1)">
       <use xlink:href="#DejaVuSans-33"/>
       <use xlink:href="#DejaVuSans-37" x="63.623047"/>
       <use xlink:href="#DejaVuSans-35" x="127.246094"/>
      </g>
     </g>
    </g>
    <g id="text_10">
     <!-- $T_{ex, meas} [K]$ -->
     <g transform="translate(181.751268 306.79952) scale(0.16 -0.16)">
      <defs>
       <path id="DejaVuSans-Oblique-54" d="M 378 4666 
L 4325 4666 
L 4225 4134 
L 2559 4134 
L 1759 0 
L 1125 0 
L 1925 4134 
L 275 4134 
L 378 4666 
z
" transform="scale(0.015625)"/>
       <path id="DejaVuSans-Oblique-65" d="M 3078 2063 
Q 3088 2113 3092 2166 
Q 3097 2219 3097 2272 
Q 3097 2653 2873 2875 
Q 2650 3097 2266 3097 
Q 1838 3097 1509 2826 
Q 1181 2556 1013 2059 
L 3078 2063 
z
M 3578 1613 
L 903 1613 
Q 884 1494 878 1425 
Q 872 1356 872 1306 
Q 872 872 1139 634 
Q 1406 397 1894 397 
Q 2269 397 2603 481 
Q 2938 566 3225 728 
L 3116 159 
Q 2806 34 2476 -28 
Q 2147 -91 1806 -91 
Q 1078 -91 686 257 
Q 294 606 294 1247 
Q 294 1794 489 2264 
Q 684 2734 1063 3103 
Q 1306 3334 1642 3459 
Q 1978 3584 2356 3584 
Q 2950 3584 3301 3228 
Q 3653 2872 3653 2272 
Q 3653 2128 3634 1964 
Q 3616 1800 3578 1613 
z
" transform="scale(0.015625)"/>
       <path id="DejaVuSans-Oblique-78" d="M 3841 3500 
L 2234 1784 
L 3219 0 
L 2559 0 
L 1819 1388 
L 531 0 
L -166 0 
L 1556 1844 
L 641 3500 
L 1300 3500 
L 1972 2234 
L 3144 3500 
L 3841 3500 
z
" transform="scale(0.015625)"/>
       <path id="DejaVuSans-2c" d="M 750 794 
L 1409 794 
L 1409 256 
L 897 -744 
L 494 -744 
L 750 256 
L 750 794 
z
" transform="scale(0.015625)"/>
       <path id="DejaVuSans-Oblique-6d" d="M 5747 2113 
L 5338 0 
L 4763 0 
L 5166 2094 
Q 5191 2228 5203 2325 
Q 5216 2422 5216 2491 
Q 5216 2772 5059 2928 
Q 4903 3084 4622 3084 
Q 4203 3084 3875 2770 
Q 3547 2456 3450 1953 
L 3066 0 
L 2491 0 
L 2900 2094 
Q 2925 2209 2937 2307 
Q 2950 2406 2950 2484 
Q 2950 2769 2794 2926 
Q 2638 3084 2363 3084 
Q 1938 3084 1609 2770 
Q 1281 2456 1184 1953 
L 800 0 
L 225 0 
L 909 3500 
L 1484 3500 
L 1375 2956 
Q 1609 3263 1923 3423 
Q 2238 3584 2597 3584 
Q 2978 3584 3223 3384 
Q 3469 3184 3519 2828 
Q 3781 3197 4126 3390 
Q 4472 3584 4856 3584 
Q 5306 3584 5551 3325 
Q 5797 3066 5797 2591 
Q 5797 2488 5784 2364 
Q 5772 2241 5747 2113 
z
" transform="scale(0.015625)"/>
       <path id="DejaVuSans-Oblique-61" d="M 3438 1997 
L 3047 0 
L 2472 0 
L 2578 531 
Q 2325 219 2001 64 
Q 1678 -91 1281 -91 
Q 834 -91 548 182 
Q 263 456 263 884 
Q 263 1497 752 1853 
Q 1241 2209 2100 2209 
L 2900 2209 
L 2931 2363 
Q 2938 2388 2941 2417 
Q 2944 2447 2944 2509 
Q 2944 2788 2717 2942 
Q 2491 3097 2081 3097 
Q 1800 3097 1504 3025 
Q 1209 2953 897 2809 
L 997 3341 
Q 1322 3463 1633 3523 
Q 1944 3584 2234 3584 
Q 2853 3584 3176 3315 
Q 3500 3047 3500 2534 
Q 3500 2431 3484 2292 
Q 3469 2153 3438 1997 
z
M 2816 1759 
L 2241 1759 
Q 1534 1759 1195 1570 
Q 856 1381 856 984 
Q 856 709 1029 553 
Q 1203 397 1509 397 
Q 1978 397 2328 733 
Q 2678 1069 2791 1631 
L 2816 1759 
z
" transform="scale(0.015625)"/>
       <path id="DejaVuSans-Oblique-73" d="M 3200 3397 
L 3091 2853 
Q 2863 2978 2609 3040 
Q 2356 3103 2088 3103 
Q 1634 3103 1373 2948 
Q 1113 2794 1113 2528 
Q 1113 2219 1719 2053 
Q 1766 2041 1788 2034 
L 1972 1978 
Q 2547 1819 2739 1644 
Q 2931 1469 2931 1166 
Q 2931 609 2489 259 
Q 2047 -91 1331 -91 
Q 1053 -91 747 -37 
Q 441 16 72 128 
L 184 722 
Q 500 559 806 475 
Q 1113 391 1394 391 
Q 1816 391 2080 572 
Q 2344 753 2344 1031 
Q 2344 1331 1650 1516 
L 1591 1531 
L 1394 1581 
Q 956 1697 753 1886 
Q 550 2075 550 2369 
Q 550 2928 970 3256 
Q 1391 3584 2113 3584 
Q 2397 3584 2667 3537 
Q 2938 3491 3200 3397 
z
" transform="scale(0.015625)"/>
       <path id="DejaVuSans-5b" d="M 550 4863 
L 1875 4863 
L 1875 4416 
L 1125 4416 
L 1125 -397 
L 1875 -397 
L 1875 -844 
L 550 -844 
L 550 4863 
z
" transform="scale(0.015625)"/>
       <path id="DejaVuSans-Oblique-4b" d="M 1081 4666 
L 1716 4666 
L 1331 2700 
L 3781 4666 
L 4622 4666 
L 1850 2438 
L 3878 0 
L 3109 0 
L 1247 2272 
L 806 0 
L 172 0 
L 1081 4666 
z
" transform="scale(0.015625)"/>
       <path id="DejaVuSans-5d" d="M 1947 4863 
L 1947 -844 
L 622 -844 
L 622 -397 
L 1369 -397 
L 1369 4416 
L 622 4416 
L 622 4863 
L 1947 4863 
z
" transform="scale(0.015625)"/>
      </defs>
      <use xlink:href="#DejaVuSans-Oblique-54" transform="translate(0 0.015625)"/>
      <use xlink:href="#DejaVuSans-Oblique-65" transform="translate(61.083984 -16.390625) scale(0.7)"/>
      <use xlink:href="#DejaVuSans-Oblique-78" transform="translate(104.150391 -16.390625) scale(0.7)"/>
      <use xlink:href="#DejaVuSans-2c" transform="translate(145.576172 -16.390625) scale(0.7)"/>
      <use xlink:href="#DejaVuSans-Oblique-6d" transform="translate(181.464844 -16.390625) scale(0.7)"/>
      <use xlink:href="#DejaVuSans-Oblique-65" transform="translate(249.65332 -16.390625) scale(0.7)"/>
      <use xlink:href="#DejaVuSans-Oblique-61" transform="translate(292.719727 -16.390625) scale(0.7)"/>
      <use xlink:href="#DejaVuSans-Oblique-73" transform="translate(335.615234 -16.390625) scale(0.7)"/>
      <use xlink:href="#DejaVuSans-5b" transform="translate(374.819336 0.015625)"/>
      <use xlink:href="#DejaVuSans-Oblique-4b" transform="translate(413.833008 0.015625)"/>
      <use xlink:href="#DejaVuSans-5d" transform="translate(479.40918 0.015625)"/>
     </g>
    </g>
   </g>
   <g id="matplotlib.axis_2">
    <g id="ytick_1">
     <g id="line2d_19">
      <path d="M 53.4475 266.0361 
L 393.095036 266.0361 
" clip-path="url(#peaf5119cd4)" style="fill: none; stroke: #b0b0b0; stroke-width: 0.8; stroke-linecap: square"/>
     </g>
     <g id="line2d_20">
      <defs>
       <path id="mbfd269b411" d="M 0 0 
L -3.5 0 
" style="stroke: #000000; stroke-width: 0.8"/>
      </defs>
      <g>
       <use xlink:href="#mbfd269b411" x="53.4475" y="266.0361" style="stroke: #000000; stroke-width: 0.8"/>
      </g>
     </g>
     <g id="text_11">
      <!-- 300 -->
      <g transform="translate(27.36 269.835318) scale(0.1 -0.1)">
       <use xlink:href="#DejaVuSans-33"/>
       <use xlink:href="#DejaVuSans-30" x="63.623047"/>
       <use xlink:href="#DejaVuSans-30" x="127.246094"/>
      </g>
     </g>
    </g>
    <g id="ytick_2">
     <g id="line2d_21">
      <path d="M 53.4475 224.753144 
L 393.095036 224.753144 
" clip-path="url(#peaf5119cd4)" style="fill: none; stroke: #b0b0b0; stroke-width: 0.8; stroke-linecap: square"/>
     </g>
     <g id="line2d_22">
      <g>
       <use xlink:href="#mbfd269b411" x="53.4475" y="224.753144" style="stroke: #000000; stroke-width: 0.8"/>
      </g>
     </g>
     <g id="text_12">
      <!-- 320 -->
      <g transform="translate(27.36 228.552363) scale(0.1 -0.1)">
       <defs>
        <path id="DejaVuSans-32" d="M 1228 531 
L 3431 531 
L 3431 0 
L 469 0 
L 469 531 
Q 828 903 1448 1529 
Q 2069 2156 2228 2338 
Q 2531 2678 2651 2914 
Q 2772 3150 2772 3378 
Q 2772 3750 2511 3984 
Q 2250 4219 1831 4219 
Q 1534 4219 1204 4116 
Q 875 4013 500 3803 
L 500 4441 
Q 881 4594 1212 4672 
Q 1544 4750 1819 4750 
Q 2544 4750 2975 4387 
Q 3406 4025 3406 3419 
Q 3406 3131 3298 2873 
Q 3191 2616 2906 2266 
Q 2828 2175 2409 1742 
Q 1991 1309 1228 531 
z
" transform="scale(0.015625)"/>
       </defs>
       <use xlink:href="#DejaVuSans-33"/>
       <use xlink:href="#DejaVuSans-32" x="63.623047"/>
       <use xlink:href="#DejaVuSans-30" x="127.246094"/>
      </g>
     </g>
    </g>
    <g id="ytick_3">
     <g id="line2d_23">
      <path d="M 53.4475 183.470188 
L 393.095036 183.470188 
" clip-path="url(#peaf5119cd4)" style="fill: none; stroke: #b0b0b0; stroke-width: 0.8; stroke-linecap: square"/>
     </g>
     <g id="line2d_24">
      <g>
       <use xlink:href="#mbfd269b411" x="53.4475" y="183.470188" style="stroke: #000000; stroke-width: 0.8"/>
      </g>
     </g>
     <g id="text_13">
      <!-- 340 -->
      <g transform="translate(27.36 187.269407) scale(0.1 -0.1)">
       <use xlink:href="#DejaVuSans-33"/>
       <use xlink:href="#DejaVuSans-34" x="63.623047"/>
       <use xlink:href="#DejaVuSans-30" x="127.246094"/>
      </g>
     </g>
    </g>
    <g id="ytick_4">
     <g id="line2d_25">
      <path d="M 53.4475 142.187233 
L 393.095036 142.187233 
" clip-path="url(#peaf5119cd4)" style="fill: none; stroke: #b0b0b0; stroke-width: 0.8; stroke-linecap: square"/>
     </g>
     <g id="line2d_26">
      <g>
       <use xlink:href="#mbfd269b411" x="53.4475" y="142.187233" style="stroke: #000000; stroke-width: 0.8"/>
      </g>
     </g>
     <g id="text_14">
      <!-- 360 -->
      <g transform="translate(27.36 145.986451) scale(0.1 -0.1)">
       <use xlink:href="#DejaVuSans-33"/>
       <use xlink:href="#DejaVuSans-36" x="63.623047"/>
       <use xlink:href="#DejaVuSans-30" x="127.246094"/>
      </g>
     </g>
    </g>
    <g id="ytick_5">
     <g id="line2d_27">
      <path d="M 53.4475 100.904277 
L 393.095036 100.904277 
" clip-path="url(#peaf5119cd4)" style="fill: none; stroke: #b0b0b0; stroke-width: 0.8; stroke-linecap: square"/>
     </g>
     <g id="line2d_28">
      <g>
       <use xlink:href="#mbfd269b411" x="53.4475" y="100.904277" style="stroke: #000000; stroke-width: 0.8"/>
      </g>
     </g>
     <g id="text_15">
      <!-- 380 -->
      <g transform="translate(27.36 104.703496) scale(0.1 -0.1)">
       <defs>
        <path id="DejaVuSans-38" d="M 2034 2216 
Q 1584 2216 1326 1975 
Q 1069 1734 1069 1313 
Q 1069 891 1326 650 
Q 1584 409 2034 409 
Q 2484 409 2743 651 
Q 3003 894 3003 1313 
Q 3003 1734 2745 1975 
Q 2488 2216 2034 2216 
z
M 1403 2484 
Q 997 2584 770 2862 
Q 544 3141 544 3541 
Q 544 4100 942 4425 
Q 1341 4750 2034 4750 
Q 2731 4750 3128 4425 
Q 3525 4100 3525 3541 
Q 3525 3141 3298 2862 
Q 3072 2584 2669 2484 
Q 3125 2378 3379 2068 
Q 3634 1759 3634 1313 
Q 3634 634 3220 271 
Q 2806 -91 2034 -91 
Q 1263 -91 848 271 
Q 434 634 434 1313 
Q 434 1759 690 2068 
Q 947 2378 1403 2484 
z
M 1172 3481 
Q 1172 3119 1398 2916 
Q 1625 2713 2034 2713 
Q 2441 2713 2670 2916 
Q 2900 3119 2900 3481 
Q 2900 3844 2670 4047 
Q 2441 4250 2034 4250 
Q 1625 4250 1398 4047 
Q 1172 3844 1172 3481 
z
" transform="scale(0.015625)"/>
       </defs>
       <use xlink:href="#DejaVuSans-33"/>
       <use xlink:href="#DejaVuSans-38" x="63.623047"/>
       <use xlink:href="#DejaVuSans-30" x="127.246094"/>
      </g>
     </g>
    </g>
    <g id="ytick_6">
     <g id="line2d_29">
      <path d="M 53.4475 59.621321 
L 393.095036 59.621321 
" clip-path="url(#peaf5119cd4)" style="fill: none; stroke: #b0b0b0; stroke-width: 0.8; stroke-linecap: square"/>
     </g>
     <g id="line2d_30">
      <g>
       <use xlink:href="#mbfd269b411" x="53.4475" y="59.621321" style="stroke: #000000; stroke-width: 0.8"/>
      </g>
     </g>
     <g id="text_16">
      <!-- 400 -->
      <g transform="translate(27.36 63.42054) scale(0.1 -0.1)">
       <use xlink:href="#DejaVuSans-34"/>
       <use xlink:href="#DejaVuSans-30" x="63.623047"/>
       <use xlink:href="#DejaVuSans-30" x="127.246094"/>
      </g>
     </g>
    </g>
    <g id="text_17">
     <!-- $T_{ex, calc} [K]$ -->
     <g transform="translate(19.36 187.099447) rotate(-90) scale(0.16 -0.16)">
      <defs>
       <path id="DejaVuSans-Oblique-63" d="M 3431 3366 
L 3316 2797 
Q 3109 2947 2876 3022 
Q 2644 3097 2394 3097 
Q 2119 3097 1870 3000 
Q 1622 2903 1453 2725 
Q 1184 2453 1037 2087 
Q 891 1722 891 1331 
Q 891 859 1127 628 
Q 1363 397 1844 397 
Q 2081 397 2348 469 
Q 2616 541 2906 684 
L 2797 116 
Q 2547 13 2283 -39 
Q 2019 -91 1741 -91 
Q 1044 -91 669 257 
Q 294 606 294 1253 
Q 294 1797 489 2255 
Q 684 2713 1069 3078 
Q 1331 3328 1684 3456 
Q 2038 3584 2456 3584 
Q 2700 3584 2940 3529 
Q 3181 3475 3431 3366 
z
" transform="scale(0.015625)"/>
       <path id="DejaVuSans-Oblique-6c" d="M 1172 4863 
L 1747 4863 
L 800 0 
L 225 0 
L 1172 4863 
z
" transform="scale(0.015625)"/>
      </defs>
      <use xlink:href="#DejaVuSans-Oblique-54" transform="translate(0 0.015625)"/>
      <use xlink:href="#DejaVuSans-Oblique-65" transform="translate(61.083984 -16.390625) scale(0.7)"/>
      <use xlink:href="#DejaVuSans-Oblique-78" transform="translate(104.150391 -16.390625) scale(0.7)"/>
      <use xlink:href="#DejaVuSans-2c" transform="translate(145.576172 -16.390625) scale(0.7)"/>
      <use xlink:href="#DejaVuSans-Oblique-63" transform="translate(181.464844 -16.390625) scale(0.7)"/>
      <use xlink:href="#DejaVuSans-Oblique-61" transform="translate(219.951172 -16.390625) scale(0.7)"/>
      <use xlink:href="#DejaVuSans-Oblique-6c" transform="translate(262.84668 -16.390625) scale(0.7)"/>
      <use xlink:href="#DejaVuSans-Oblique-63" transform="translate(282.294922 -16.390625) scale(0.7)"/>
      <use xlink:href="#DejaVuSans-5b" transform="translate(323.515625 0.015625)"/>
      <use xlink:href="#DejaVuSans-Oblique-4b" transform="translate(362.529297 0.015625)"/>
      <use xlink:href="#DejaVuSans-5d" transform="translate(428.105469 0.015625)"/>
     </g>
    </g>
   </g>
   <g id="line2d_31">
    <path d="M 68.886024 193.481305 
L 377.656512 113.8052 
" clip-path="url(#peaf5119cd4)" style="fill: none; stroke: #000000; stroke-width: 1.7; stroke-linecap: square"/>
   </g>
   <g id="line2d_32">
    <path d="M 68.886024 124.301392 
L 377.656512 36.657677 
" clip-path="url(#peaf5119cd4)" style="fill: none; stroke-dasharray: 5.18,2.24; stroke-dashoffset: 0; stroke: #808080; stroke-width: 1.4"/>
   </g>
   <g id="line2d_33">
    <path d="M 68.886024 262.661218 
L 377.656512 190.952724 
" clip-path="url(#peaf5119cd4)" style="fill: none; stroke-dasharray: 5.18,2.24; stroke-dashoffset: 0; stroke: #808080; stroke-width: 1.4"/>
   </g>
   <g id="patch_3">
    <path d="M 53.4475 273.961395 
L 53.4475 25.3575 
" style="fill: none; stroke: #000000; stroke-width: 0.8; stroke-linejoin: miter; stroke-linecap: square"/>
   </g>
   <g id="patch_4">
    <path d="M 393.095036 273.961395 
L 393.095036 25.3575 
" style="fill: none; stroke: #000000; stroke-width: 0.8; stroke-linejoin: miter; stroke-linecap: square"/>
   </g>
   <g id="patch_5">
    <path d="M 53.4475 273.961395 
L 393.095036 273.961395 
" style="fill: none; stroke: #000000; stroke-width: 0.8; stroke-linejoin: miter; stroke-linecap: square"/>
   </g>
   <g id="patch_6">
    <path d="M 53.4475 25.3575 
L 393.095036 25.3575 
" style="fill: none; stroke: #000000; stroke-width: 0.8; stroke-linejoin: miter; stroke-linecap: square"/>
   </g>
   <g id="text_18">
    <!-- Parity Plot: Exhaust Temperature -->
    <g transform="translate(92.315018 19.3575) scale(0.16 -0.16)">
     <defs>
      <path id="DejaVuSans-50" d="M 1259 4147 
L 1259 2394 
L 2053 2394 
Q 2494 2394 2734 2622 
Q 2975 2850 2975 3272 
Q 2975 3691 2734 3919 
Q 2494 4147 2053 4147 
L 1259 4147 
z
M 628 4666 
L 2053 4666 
Q 2838 4666 3239 4311 
Q 3641 3956 3641 3272 
Q 3641 2581 3239 2228 
Q 2838 1875 2053 1875 
L 1259 1875 
L 1259 0 
L 628 0 
L 628 4666 
z
" transform="scale(0.015625)"/>
      <path id="DejaVuSans-61" d="M 2194 1759 
Q 1497 1759 1228 1600 
Q 959 1441 959 1056 
Q 959 750 1161 570 
Q 1363 391 1709 391 
Q 2188 391 2477 730 
Q 2766 1069 2766 1631 
L 2766 1759 
L 2194 1759 
z
M 3341 1997 
L 3341 0 
L 2766 0 
L 2766 531 
Q 2569 213 2275 61 
Q 1981 -91 1556 -91 
Q 1019 -91 701 211 
Q 384 513 384 1019 
Q 384 1609 779 1909 
Q 1175 2209 1959 2209 
L 2766 2209 
L 2766 2266 
Q 2766 2663 2505 2880 
Q 2244 3097 1772 3097 
Q 1472 3097 1187 3025 
Q 903 2953 641 2809 
L 641 3341 
Q 956 3463 1253 3523 
Q 1550 3584 1831 3584 
Q 2591 3584 2966 3190 
Q 3341 2797 3341 1997 
z
" transform="scale(0.015625)"/>
      <path id="DejaVuSans-72" d="M 2631 2963 
Q 2534 3019 2420 3045 
Q 2306 3072 2169 3072 
Q 1681 3072 1420 2755 
Q 1159 2438 1159 1844 
L 1159 0 
L 581 0 
L 581 3500 
L 1159 3500 
L 1159 2956 
Q 1341 3275 1631 3429 
Q 1922 3584 2338 3584 
Q 2397 3584 2469 3576 
Q 2541 3569 2628 3553 
L 2631 2963 
z
" transform="scale(0.015625)"/>
      <path id="DejaVuSans-69" d="M 603 3500 
L 1178 3500 
L 1178 0 
L 603 0 
L 603 3500 
z
M 603 4863 
L 1178 4863 
L 1178 4134 
L 603 4134 
L 603 4863 
z
" transform="scale(0.015625)"/>
      <path id="DejaVuSans-74" d="M 1172 4494 
L 1172 3500 
L 2356 3500 
L 2356 3053 
L 1172 3053 
L 1172 1153 
Q 1172 725 1289 603 
Q 1406 481 1766 481 
L 2356 481 
L 2356 0 
L 1766 0 
Q 1100 0 847 248 
Q 594 497 594 1153 
L 594 3053 
L 172 3053 
L 172 3500 
L 594 3500 
L 594 4494 
L 1172 4494 
z
" transform="scale(0.015625)"/>
      <path id="DejaVuSans-79" d="M 2059 -325 
Q 1816 -950 1584 -1140 
Q 1353 -1331 966 -1331 
L 506 -1331 
L 506 -850 
L 844 -850 
Q 1081 -850 1212 -737 
Q 1344 -625 1503 -206 
L 1606 56 
L 191 3500 
L 800 3500 
L 1894 763 
L 2988 3500 
L 3597 3500 
L 2059 -325 
z
" transform="scale(0.015625)"/>
      <path id="DejaVuSans-20" transform="scale(0.015625)"/>
      <path id="DejaVuSans-6c" d="M 603 4863 
L 1178 4863 
L 1178 0 
L 603 0 
L 603 4863 
z
" transform="scale(0.015625)"/>
      <path id="DejaVuSans-6f" d="M 1959 3097 
Q 1497 3097 1228 2736 
Q 959 2375 959 1747 
Q 959 1119 1226 758 
Q 1494 397 1959 397 
Q 2419 397 2687 759 
Q 2956 1122 2956 1747 
Q 2956 2369 2687 2733 
Q 2419 3097 1959 3097 
z
M 1959 3584 
Q 2709 3584 3137 3096 
Q 3566 2609 3566 1747 
Q 3566 888 3137 398 
Q 2709 -91 1959 -91 
Q 1206 -91 779 398 
Q 353 888 353 1747 
Q 353 2609 779 3096 
Q 1206 3584 1959 3584 
z
" transform="scale(0.015625)"/>
      <path id="DejaVuSans-3a" d="M 750 794 
L 1409 794 
L 1409 0 
L 750 0 
L 750 794 
z
M 750 3309 
L 1409 3309 
L 1409 2516 
L 750 2516 
L 750 3309 
z
" transform="scale(0.015625)"/>
      <path id="DejaVuSans-45" d="M 628 4666 
L 3578 4666 
L 3578 4134 
L 1259 4134 
L 1259 2753 
L 3481 2753 
L 3481 2222 
L 1259 2222 
L 1259 531 
L 3634 531 
L 3634 0 
L 628 0 
L 628 4666 
z
" transform="scale(0.015625)"/>
      <path id="DejaVuSans-78" d="M 3513 3500 
L 2247 1797 
L 3578 0 
L 2900 0 
L 1881 1375 
L 863 0 
L 184 0 
L 1544 1831 
L 300 3500 
L 978 3500 
L 1906 2253 
L 2834 3500 
L 3513 3500 
z
" transform="scale(0.015625)"/>
      <path id="DejaVuSans-68" d="M 3513 2113 
L 3513 0 
L 2938 0 
L 2938 2094 
Q 2938 2591 2744 2837 
Q 2550 3084 2163 3084 
Q 1697 3084 1428 2787 
Q 1159 2491 1159 1978 
L 1159 0 
L 581 0 
L 581 4863 
L 1159 4863 
L 1159 2956 
Q 1366 3272 1645 3428 
Q 1925 3584 2291 3584 
Q 2894 3584 3203 3211 
Q 3513 2838 3513 2113 
z
" transform="scale(0.015625)"/>
      <path id="DejaVuSans-75" d="M 544 1381 
L 544 3500 
L 1119 3500 
L 1119 1403 
Q 1119 906 1312 657 
Q 1506 409 1894 409 
Q 2359 409 2629 706 
Q 2900 1003 2900 1516 
L 2900 3500 
L 3475 3500 
L 3475 0 
L 2900 0 
L 2900 538 
Q 2691 219 2414 64 
Q 2138 -91 1772 -91 
Q 1169 -91 856 284 
Q 544 659 544 1381 
z
M 1991 3584 
L 1991 3584 
z
" transform="scale(0.015625)"/>
      <path id="DejaVuSans-73" d="M 2834 3397 
L 2834 2853 
Q 2591 2978 2328 3040 
Q 2066 3103 1784 3103 
Q 1356 3103 1142 2972 
Q 928 2841 928 2578 
Q 928 2378 1081 2264 
Q 1234 2150 1697 2047 
L 1894 2003 
Q 2506 1872 2764 1633 
Q 3022 1394 3022 966 
Q 3022 478 2636 193 
Q 2250 -91 1575 -91 
Q 1294 -91 989 -36 
Q 684 19 347 128 
L 347 722 
Q 666 556 975 473 
Q 1284 391 1588 391 
Q 1994 391 2212 530 
Q 2431 669 2431 922 
Q 2431 1156 2273 1281 
Q 2116 1406 1581 1522 
L 1381 1569 
Q 847 1681 609 1914 
Q 372 2147 372 2553 
Q 372 3047 722 3315 
Q 1072 3584 1716 3584 
Q 2034 3584 2315 3537 
Q 2597 3491 2834 3397 
z
" transform="scale(0.015625)"/>
      <path id="DejaVuSans-54" d="M -19 4666 
L 3928 4666 
L 3928 4134 
L 2272 4134 
L 2272 0 
L 1638 0 
L 1638 4134 
L -19 4134 
L -19 4666 
z
" transform="scale(0.015625)"/>
      <path id="DejaVuSans-65" d="M 3597 1894 
L 3597 1613 
L 953 1613 
Q 991 1019 1311 708 
Q 1631 397 2203 397 
Q 2534 397 2845 478 
Q 3156 559 3463 722 
L 3463 178 
Q 3153 47 2828 -22 
Q 2503 -91 2169 -91 
Q 1331 -91 842 396 
Q 353 884 353 1716 
Q 353 2575 817 3079 
Q 1281 3584 2069 3584 
Q 2775 3584 3186 3129 
Q 3597 2675 3597 1894 
z
M 3022 2063 
Q 3016 2534 2758 2815 
Q 2500 3097 2075 3097 
Q 1594 3097 1305 2825 
Q 1016 2553 972 2059 
L 3022 2063 
z
" transform="scale(0.015625)"/>
      <path id="DejaVuSans-6d" d="M 3328 2828 
Q 3544 3216 3844 3400 
Q 4144 3584 4550 3584 
Q 5097 3584 5394 3201 
Q 5691 2819 5691 2113 
L 5691 0 
L 5113 0 
L 5113 2094 
Q 5113 2597 4934 2840 
Q 4756 3084 4391 3084 
Q 3944 3084 3684 2787 
Q 3425 2491 3425 1978 
L 3425 0 
L 2847 0 
L 2847 2094 
Q 2847 2600 2669 2842 
Q 2491 3084 2119 3084 
Q 1678 3084 1418 2786 
Q 1159 2488 1159 1978 
L 1159 0 
L 581 0 
L 581 3500 
L 1159 3500 
L 1159 2956 
Q 1356 3278 1631 3431 
Q 1906 3584 2284 3584 
Q 2666 3584 2933 3390 
Q 3200 3197 3328 2828 
z
" transform="scale(0.015625)"/>
      <path id="DejaVuSans-70" d="M 1159 525 
L 1159 -1331 
L 581 -1331 
L 581 3500 
L 1159 3500 
L 1159 2969 
Q 1341 3281 1617 3432 
Q 1894 3584 2278 3584 
Q 2916 3584 3314 3078 
Q 3713 2572 3713 1747 
Q 3713 922 3314 415 
Q 2916 -91 2278 -91 
Q 1894 -91 1617 61 
Q 1341 213 1159 525 
z
M 3116 1747 
Q 3116 2381 2855 2742 
Q 2594 3103 2138 3103 
Q 1681 3103 1420 2742 
Q 1159 2381 1159 1747 
Q 1159 1113 1420 752 
Q 1681 391 2138 391 
Q 2594 391 2855 752 
Q 3116 1113 3116 1747 
z
" transform="scale(0.015625)"/>
     </defs>
     <use xlink:href="#DejaVuSans-50"/>
     <use xlink:href="#DejaVuSans-61" x="55.802734"/>
     <use xlink:href="#DejaVuSans-72" x="117.082031"/>
     <use xlink:href="#DejaVuSans-69" x="158.195312"/>
     <use xlink:href="#DejaVuSans-74" x="185.978516"/>
     <use xlink:href="#DejaVuSans-79" x="225.1875"/>
     <use xlink:href="#DejaVuSans-20" x="284.367188"/>
     <use xlink:href="#DejaVuSans-50" x="316.154297"/>
     <use xlink:href="#DejaVuSans-6c" x="376.457031"/>
     <use xlink:href="#DejaVuSans-6f" x="404.240234"/>
     <use xlink:href="#DejaVuSans-74" x="465.421875"/>
     <use xlink:href="#DejaVuSans-3a" x="504.630859"/>
     <use xlink:href="#DejaVuSans-20" x="538.322266"/>
     <use xlink:href="#DejaVuSans-45" x="570.109375"/>
     <use xlink:href="#DejaVuSans-78" x="633.292969"/>
     <use xlink:href="#DejaVuSans-68" x="692.472656"/>
     <use xlink:href="#DejaVuSans-61" x="755.851562"/>
     <use xlink:href="#DejaVuSans-75" x="817.130859"/>
     <use xlink:href="#DejaVuSans-73" x="880.509766"/>
     <use xlink:href="#DejaVuSans-74" x="932.609375"/>
     <use xlink:href="#DejaVuSans-20" x="971.818359"/>
     <use xlink:href="#DejaVuSans-54" x="1003.605469"/>
     <use xlink:href="#DejaVuSans-65" x="1047.689453"/>
     <use xlink:href="#DejaVuSans-6d" x="1109.212891"/>
     <use xlink:href="#DejaVuSans-70" x="1206.625"/>
     <use xlink:href="#DejaVuSans-65" x="1270.101562"/>
     <use xlink:href="#DejaVuSans-72" x="1331.625"/>
     <use xlink:href="#DejaVuSans-61" x="1372.738281"/>
     <use xlink:href="#DejaVuSans-74" x="1434.017578"/>
     <use xlink:href="#DejaVuSans-75" x="1473.226562"/>
     <use xlink:href="#DejaVuSans-72" x="1536.605469"/>
     <use xlink:href="#DejaVuSans-65" x="1575.46875"/>
    </g>
   </g>
   <g id="legend_1">
    <g id="patch_7">
     <path d="M 61.8475 87.79875 
L 295.75 87.79875 
Q 298.15 87.79875 298.15 85.39875 
L 298.15 33.7575 
Q 298.15 31.3575 295.75 31.3575 
L 61.8475 31.3575 
Q 59.4475 31.3575 59.4475 33.7575 
L 59.4475 85.39875 
Q 59.4475 87.79875 61.8475 87.79875 
z
" style="fill: #ffffff; opacity: 0.8; stroke: #cccccc; stroke-linejoin: miter"/>
    </g>
    <g id="line2d_34">
     <path d="M 64.2475 41.075625 
L 76.2475 41.075625 
L 88.2475 41.075625 
" style="fill: none; stroke: #000000; stroke-width: 1.7; stroke-linecap: square"/>
    </g>
    <g id="text_19">
     <!-- 45° line -->
     <g transform="translate(97.8475 45.275625) scale(0.12 -0.12)">
      <defs>
       <path id="DejaVuSans-b0" d="M 1600 4347 
Q 1350 4347 1178 4173 
Q 1006 4000 1006 3750 
Q 1006 3503 1178 3333 
Q 1350 3163 1600 3163 
Q 1850 3163 2022 3333 
Q 2194 3503 2194 3750 
Q 2194 3997 2020 4172 
Q 1847 4347 1600 4347 
z
M 1600 4750 
Q 1800 4750 1984 4673 
Q 2169 4597 2303 4453 
Q 2447 4313 2519 4134 
Q 2591 3956 2591 3750 
Q 2591 3338 2302 3052 
Q 2013 2766 1594 2766 
Q 1172 2766 890 3047 
Q 609 3328 609 3750 
Q 609 4169 896 4459 
Q 1184 4750 1600 4750 
z
" transform="scale(0.015625)"/>
       <path id="DejaVuSans-6e" d="M 3513 2113 
L 3513 0 
L 2938 0 
L 2938 2094 
Q 2938 2591 2744 2837 
Q 2550 3084 2163 3084 
Q 1697 3084 1428 2787 
Q 1159 2491 1159 1978 
L 1159 0 
L 581 0 
L 581 3500 
L 1159 3500 
L 1159 2956 
Q 1366 3272 1645 3428 
Q 1925 3584 2291 3584 
Q 2894 3584 3203 3211 
Q 3513 2838 3513 2113 
z
" transform="scale(0.015625)"/>
      </defs>
      <use xlink:href="#DejaVuSans-34"/>
      <use xlink:href="#DejaVuSans-35" x="63.623047"/>
      <use xlink:href="#DejaVuSans-b0" x="127.246094"/>
      <use xlink:href="#DejaVuSans-20" x="177.246094"/>
      <use xlink:href="#DejaVuSans-6c" x="209.033203"/>
      <use xlink:href="#DejaVuSans-69" x="236.816406"/>
      <use xlink:href="#DejaVuSans-6e" x="264.599609"/>
      <use xlink:href="#DejaVuSans-65" x="327.978516"/>
     </g>
    </g>
    <g id="line2d_35">
     <path d="M 64.2475 58.689375 
L 76.2475 58.689375 
L 88.2475 58.689375 
" style="fill: none; stroke-dasharray: 5.18,2.24; stroke-dashoffset: 0; stroke: #808080; stroke-width: 1.4"/>
    </g>
    <g id="text_20">
     <!-- 10% error -->
     <g transform="translate(97.8475 62.889375) scale(0.12 -0.12)">
      <defs>
       <path id="DejaVuSans-31" d="M 794 531 
L 1825 531 
L 1825 4091 
L 703 3866 
L 703 4441 
L 1819 4666 
L 2450 4666 
L 2450 531 
L 3481 531 
L 3481 0 
L 794 0 
L 794 531 
z
" transform="scale(0.015625)"/>
       <path id="DejaVuSans-25" d="M 4653 2053 
Q 4381 2053 4226 1822 
Q 4072 1591 4072 1178 
Q 4072 772 4226 539 
Q 4381 306 4653 306 
Q 4919 306 5073 539 
Q 5228 772 5228 1178 
Q 5228 1588 5073 1820 
Q 4919 2053 4653 2053 
z
M 4653 2450 
Q 5147 2450 5437 2106 
Q 5728 1763 5728 1178 
Q 5728 594 5436 251 
Q 5144 -91 4653 -91 
Q 4153 -91 3862 251 
Q 3572 594 3572 1178 
Q 3572 1766 3864 2108 
Q 4156 2450 4653 2450 
z
M 1428 4353 
Q 1159 4353 1004 4120 
Q 850 3888 850 3481 
Q 850 3069 1003 2837 
Q 1156 2606 1428 2606 
Q 1700 2606 1854 2837 
Q 2009 3069 2009 3481 
Q 2009 3884 1853 4118 
Q 1697 4353 1428 4353 
z
M 4250 4750 
L 4750 4750 
L 1831 -91 
L 1331 -91 
L 4250 4750 
z
M 1428 4750 
Q 1922 4750 2215 4408 
Q 2509 4066 2509 3481 
Q 2509 2891 2217 2550 
Q 1925 2209 1428 2209 
Q 931 2209 642 2551 
Q 353 2894 353 3481 
Q 353 4063 643 4406 
Q 934 4750 1428 4750 
z
" transform="scale(0.015625)"/>
      </defs>
      <use xlink:href="#DejaVuSans-31"/>
      <use xlink:href="#DejaVuSans-30" x="63.623047"/>
      <use xlink:href="#DejaVuSans-25" x="127.246094"/>
      <use xlink:href="#DejaVuSans-20" x="222.265625"/>
      <use xlink:href="#DejaVuSans-65" x="254.052734"/>
      <use xlink:href="#DejaVuSans-72" x="315.576172"/>
      <use xlink:href="#DejaVuSans-72" x="354.939453"/>
      <use xlink:href="#DejaVuSans-6f" x="393.802734"/>
      <use xlink:href="#DejaVuSans-72" x="454.984375"/>
     </g>
    </g>
    <g id="PathCollection_2">
     <g>
      <use xlink:href="#m9153ea13fe" x="76.2475" y="77.353125" style="fill: #1f77b4; stroke: #1f77b4"/>
     </g>
    </g>
    <g id="text_21">
     <!-- Calculated Exhaust Temperature -->
     <g transform="translate(97.8475 80.503125) scale(0.12 -0.12)">
      <defs>
       <path id="DejaVuSans-43" d="M 4122 4306 
L 4122 3641 
Q 3803 3938 3442 4084 
Q 3081 4231 2675 4231 
Q 1875 4231 1450 3742 
Q 1025 3253 1025 2328 
Q 1025 1406 1450 917 
Q 1875 428 2675 428 
Q 3081 428 3442 575 
Q 3803 722 4122 1019 
L 4122 359 
Q 3791 134 3420 21 
Q 3050 -91 2638 -91 
Q 1578 -91 968 557 
Q 359 1206 359 2328 
Q 359 3453 968 4101 
Q 1578 4750 2638 4750 
Q 3056 4750 3426 4639 
Q 3797 4528 4122 4306 
z
" transform="scale(0.015625)"/>
       <path id="DejaVuSans-63" d="M 3122 3366 
L 3122 2828 
Q 2878 2963 2633 3030 
Q 2388 3097 2138 3097 
Q 1578 3097 1268 2742 
Q 959 2388 959 1747 
Q 959 1106 1268 751 
Q 1578 397 2138 397 
Q 2388 397 2633 464 
Q 2878 531 3122 666 
L 3122 134 
Q 2881 22 2623 -34 
Q 2366 -91 2075 -91 
Q 1284 -91 818 406 
Q 353 903 353 1747 
Q 353 2603 823 3093 
Q 1294 3584 2113 3584 
Q 2378 3584 2631 3529 
Q 2884 3475 3122 3366 
z
" transform="scale(0.015625)"/>
       <path id="DejaVuSans-64" d="M 2906 2969 
L 2906 4863 
L 3481 4863 
L 3481 0 
L 2906 0 
L 2906 525 
Q 2725 213 2448 61 
Q 2172 -91 1784 -91 
Q 1150 -91 751 415 
Q 353 922 353 1747 
Q 353 2572 751 3078 
Q 1150 3584 1784 3584 
Q 2172 3584 2448 3432 
Q 2725 3281 2906 2969 
z
M 947 1747 
Q 947 1113 1208 752 
Q 1469 391 1925 391 
Q 2381 391 2643 752 
Q 2906 1113 2906 1747 
Q 2906 2381 2643 2742 
Q 2381 3103 1925 3103 
Q 1469 3103 1208 2742 
Q 947 2381 947 1747 
z
" transform="scale(0.015625)"/>
      </defs>
      <use xlink:href="#DejaVuSans-43"/>
      <use xlink:href="#DejaVuSans-61" x="69.824219"/>
      <use xlink:href="#DejaVuSans-6c" x="131.103516"/>
      <use xlink:href="#DejaVuSans-63" x="158.886719"/>
      <use xlink:href="#DejaVuSans-75" x="213.867188"/>
      <use xlink:href="#DejaVuSans-6c" x="277.246094"/>
      <use xlink:href="#DejaVuSans-61" x="305.029297"/>
      <use xlink:href="#DejaVuSans-74" x="366.308594"/>
      <use xlink:href="#DejaVuSans-65" x="405.517578"/>
      <use xlink:href="#DejaVuSans-64" x="467.041016"/>
      <use xlink:href="#DejaVuSans-20" x="530.517578"/>
      <use xlink:href="#DejaVuSans-45" x="562.304688"/>
      <use xlink:href="#DejaVuSans-78" x="625.488281"/>
      <use xlink:href="#DejaVuSans-68" x="684.667969"/>
      <use xlink:href="#DejaVuSans-61" x="748.046875"/>
      <use xlink:href="#DejaVuSans-75" x="809.326172"/>
      <use xlink:href="#DejaVuSans-73" x="872.705078"/>
      <use xlink:href="#DejaVuSans-74" x="924.804688"/>
      <use xlink:href="#DejaVuSans-20" x="964.013672"/>
      <use xlink:href="#DejaVuSans-54" x="995.800781"/>
      <use xlink:href="#DejaVuSans-65" x="1039.884766"/>
      <use xlink:href="#DejaVuSans-6d" x="1101.408203"/>
      <use xlink:href="#DejaVuSans-70" x="1198.820312"/>
      <use xlink:href="#DejaVuSans-65" x="1262.296875"/>
      <use xlink:href="#DejaVuSans-72" x="1323.820312"/>
      <use xlink:href="#DejaVuSans-61" x="1364.933594"/>
      <use xlink:href="#DejaVuSans-74" x="1426.212891"/>
      <use xlink:href="#DejaVuSans-75" x="1465.421875"/>
      <use xlink:href="#DejaVuSans-72" x="1528.800781"/>
      <use xlink:href="#DejaVuSans-65" x="1567.664062"/>
     </g>
    </g>
   </g>
  </g>
 </g>
 <defs>
  <clipPath id="peaf5119cd4">
   <rect x="53.4475" y="25.3575" width="339.647536" height="248.603895"/>
  </clipPath>
 </defs>
</svg>
